# Blender v2.93.1 OBJ File: 'StrangeForm2.blend'
# www.blender.org
mtllib StrangeForm2.mtl
o Cube
v 0.000000 -0.666667 -1.000000
v 0.500000 -0.166667 -0.500000
v 1.000000 -0.666667 0.000000
v 0.500000 -0.166667 0.500000
v -1.000000 -0.666667 0.000000
v -0.500000 -0.166667 -0.500000
v 0.000000 -0.666667 1.000000
v -0.500000 -0.166667 0.500000
v 0.000000 0.333333 0.000000
vt 0.625000 0.500000
vt 0.875000 0.500000
vt 0.750000 0.625000
vt 0.375000 0.750000
vt 0.625000 0.750000
vt 0.625000 1.000000
vt 0.375000 1.000000
vt 0.375000 0.000000
vt 0.625000 0.000000
vt 0.625000 0.250000
vt 0.375000 0.250000
vt 0.125000 0.500000
vt 0.375000 0.500000
vt 0.125000 0.750000
vt 0.875000 0.750000
vn -0.5774 0.5774 -0.5774
vn -0.4082 -0.4082 -0.8165
vn 0.8165 -0.4082 -0.4082
vn 0.0000 -1.0000 0.0000
vn -0.8165 -0.4082 0.4082
vn 0.4082 -0.4082 0.8165
vn 0.5774 0.5774 0.5774
vn 0.5774 0.5774 -0.5774
vn -0.5774 0.5774 0.5774
usemtl Material
s off
f 1/1/1 5/2/1 9/3/1
f 4/4/2 3/5/2 7/6/2 8/7/2
f 8/8/3 7/9/3 5/10/3 6/11/3
f 6/12/4 2/13/4 4/4/4 8/14/4
f 2/13/5 1/1/5 3/5/5 4/4/5
f 6/11/6 5/10/6 1/1/6 2/13/6
f 3/5/7 9/3/7 7/15/7
f 9/3/8 3/5/8 1/1/8
f 7/15/9 9/3/9 5/2/9
