# Blender v2.93.1 OBJ File: 'StrangeForm3.blend'
# www.blender.org
mtllib StrangeForm3.mtl
o Cube
v 0.000000 0.500000 0.000000
v 0.500000 -0.500000 -0.500000
v 0.500000 -0.500000 0.500000
v -0.500000 -0.500000 -0.500000
v -0.500000 -0.500000 0.500000
v 0.700000 -0.500000 0.000000
v 0.000000 -0.500000 -0.700000
v -0.700000 -0.500000 0.000000
v 0.000000 -0.500000 0.700000
vt 0.000000 0.000000
vt 0.000000 0.000000
vt 0.000000 0.000000
vt 0.375000 0.500000
vt 0.125000 0.500000
vt 0.375000 0.000000
vt 0.000000 0.000000
vt 0.000000 0.000000
vt 0.000000 0.000000
vt 0.000000 0.000000
vt 0.000000 0.000000
vt 0.375000 0.750000
vt 0.375000 0.625000
vt 0.250000 0.500000
vt 0.375000 0.250000
vt 0.375000 0.125000
vt 0.375000 1.000000
vt 0.375000 0.875000
vn -0.3114 -0.5449 -0.7785
vn 0.0000 1.0000 0.0000
vn -0.3114 0.5449 -0.7785
vn 0.7785 -0.5449 0.3114
vn 0.3114 -0.5449 -0.7785
vn 0.7785 -0.5449 -0.3114
vn -0.3114 -0.5449 0.7785
vn -0.7785 -0.5449 0.3114
vn -0.7785 -0.5449 -0.3114
vn 0.0000 -1.0000 0.0000
usemtl Material
s off
f 9/1/1 1/2/1 3/3/1
f 2/4/2 4/5/2 5/6/2 3/3/2
f 4/5/3 1/2/3 7/7/3
f 4/5/4 1/2/4 8/8/4
f 5/9/5 1/2/5 9/1/5
f 8/8/6 1/2/6 5/9/6
f 1/2/7 7/7/7 2/10/7
f 6/11/8 1/2/8 2/10/8
f 3/3/9 1/2/9 6/11/9
f 2/4/2 3/12/2 6/13/2
f 2/4/10 4/5/10 7/14/10
f 5/6/2 4/15/2 8/16/2
f 3/3/2 5/17/2 9/18/2
